<svg id="Capa_1" data-name="Capa 1" xmlns="http://www.w3.org/2000/svg" viewBox="0 0 1919 1005"><defs><style>.cls-1{fill:#efefef;}.cls-2{fill:#f88e05;}.cls-3{fill:#f8bc05;}</style></defs><polygon points="0 -0.5 959.5 69.5 1919 -0.5 1919 935.5 969.25 1005.5 0 935.5 0 -0.5"/><rect class="cls-1" x="-59.67" y="639.53" width="292.95" height="24.06" transform="translate(-435.3 252.22) rotate(-45)"/><rect class="cls-2" x="-97.66" y="727" width="327.46" height="24.06" transform="translate(-503.22 263.18) rotate(-45)"/><rect class="cls-3" x="-13.08" y="238.91" width="183.91" height="183.91" transform="translate(-210.86 152.68) rotate(-45)"/><rect class="cls-2" x="-13.89" y="179.86" width="184.13" height="183.91" transform="translate(-169.3 134.89) rotate(-45)"/><rect class="cls-1" x="278.28" y="419.54" width="15.8" height="85.93" transform="translate(-243.22 337.82) rotate(-45)"/><rect class="cls-1" x="240.26" y="454.71" width="85.93" height="15.8" transform="translate(-244.16 335.76) rotate(-45)"/><rect class="cls-3" x="1718.46" y="505.4" width="183.91" height="183.91" transform="translate(107.86 1455.12) rotate(-45)"/><rect class="cls-2" x="1789.18" y="534.76" width="183.91" height="386.13" transform="translate(36.32 1543.34) rotate(-45)"/><rect class="cls-1" x="1636.24" y="309.24" width="215.58" height="24.06" transform="translate(283.65 1327.31) rotate(-45)"/><rect class="cls-3" x="1718.5" y="120.98" width="183.91" height="183.91" transform="translate(379.7 1342.55) rotate(-45)"/><rect class="cls-2" x="1613.19" y="157.72" width="431.24" height="24.06" transform="translate(415.62 1342.89) rotate(-45)"/></svg>