<svg id="Capa_1" data-name="Capa 1" xmlns="http://www.w3.org/2000/svg" viewBox="0 0 1919 1035"><defs><style>.cls-1{fill:#222;}.cls-2{fill:#efefef;}.cls-3{fill:#f88e05;}.cls-4{fill:#f8bc05;}</style></defs><polygon class="cls-1" points="0 14.5 959.5 84.5 1919 14.5 1919 950.5 969.25 1020.5 0 950.5 0 14.5"/><rect class="cls-2" x="-59.67" y="654.53" width="292.95" height="24.06" transform="translate(-445.9 256.61) rotate(-45)"/><rect class="cls-3" x="-97.66" y="742" width="327.46" height="24.06" transform="translate(-513.83 267.57) rotate(-45)"/><rect class="cls-4" x="-13.08" y="253.91" width="183.91" height="183.91" transform="translate(-221.46 157.07) rotate(-45)"/><rect class="cls-3" x="-13.89" y="194.86" width="184.13" height="183.91" transform="translate(-179.91 139.29) rotate(-45)"/><rect class="cls-2" x="278.28" y="434.54" width="15.8" height="85.93" transform="translate(-253.83 342.21) rotate(-45)"/><rect class="cls-2" x="240.26" y="469.71" width="85.93" height="15.8" transform="translate(-254.76 340.15) rotate(-45)"/><rect class="cls-4" x="1718.46" y="520.4" width="183.91" height="183.91" transform="translate(97.26 1459.51) rotate(-45)"/><rect class="cls-3" x="1789.18" y="549.76" width="183.91" height="386.13" transform="translate(25.71 1547.73) rotate(-45)"/><rect class="cls-2" x="1636.24" y="324.24" width="215.58" height="24.06" transform="translate(273.04 1331.71) rotate(-45)"/><rect class="cls-4" x="1718.5" y="135.98" width="183.91" height="183.91" transform="translate(369.09 1346.95) rotate(-45)"/><rect class="cls-3" x="1613.19" y="172.72" width="431.24" height="24.06" transform="translate(405.01 1347.28) rotate(-45)"/></svg>