<svg id="Capa_1" data-name="Capa 1" xmlns="http://www.w3.org/2000/svg" viewBox="0 0 234.36 148.5"><defs><style>.cls-1{fill:#f88e05;}.cls-2{fill:#fff;}</style></defs><path class="cls-1" d="M163.4,113.54l-4.89,4.89L131.25,91.17l4.89-4.89Z"/><path class="cls-1" d="M61.42,46.09,56.53,51,42.44,36.89,47.33,32Z"/><path class="cls-1" d="M23.25,62.25l-5-5,27.2-27.2,4.95,5Z"/><path class="cls-1" d="M207.82,85l5.05,5-32.1,32.09-5-5Z"/><polygon class="cls-1" points="215.85 96.17 201.45 81.76 215.85 81.76 215.85 96.17"/><path class="cls-2" d="M56.64,68.41q-3.28-3.55-3.28-10V28.66q0-6.48,3.28-10t9.52-3.55q6.24,0,9.52,3.55t3.28,10v5.85H70.74v-6.4Q70.74,23,66.4,23t-4.35,5.14V59q0,5.06,4.35,5.05T70.74,59V50.55H79v7.82q0,6.48-3.28,10T66.16,72Q59.92,72,56.64,68.41Z"/><path class="cls-2" d="M84.18,15.86H97.06q6.72,0,9.8,3.12t3.08,9.6V32q0,8.61-5.69,10.91V43a6.82,6.82,0,0,1,4.47,3.88,19.61,19.61,0,0,1,1.3,7.82v9.72a35.7,35.7,0,0,0,.16,3.83,9.51,9.51,0,0,0,.79,2.89h-8.85a12.86,12.86,0,0,1-.64-2.53,40.19,40.19,0,0,1-.15-4.27V54.26c0-2.52-.41-4.29-1.23-5.29s-2.22-1.5-4.23-1.5h-3V71.18H84.18ZM96,39.57a5.18,5.18,0,0,0,3.91-1.35c.87-.89,1.31-2.39,1.31-4.5V29.45a7.05,7.05,0,0,0-1.07-4.35,4,4,0,0,0-3.36-1.34H92.87V39.57Z"/><path class="cls-2" d="M116,15.86h8.7V71.18H116Z"/><path class="cls-2" d="M131.2,15.86H144q6.48,0,9.72,3.48T157,29.53V35q0,6.72-3.24,10.2T144,48.65h-4.11V71.18H131.2ZM144,40.75a4.09,4.09,0,0,0,3.2-1.18,6,6,0,0,0,1.07-4V29a6,6,0,0,0-1.07-4,4.09,4.09,0,0,0-3.2-1.19h-4.11v17Z"/><path class="cls-2" d="M168.65,23.76h-9.09v-7.9h26.87v7.9h-9.08V71.18h-8.7Z"/><path class="cls-2" d="M193.07,68.33q-3.4-3.63-3.4-10.27V29q0-6.64,3.4-10.28t9.8-3.63q6.4,0,9.8,3.63T216.07,29V58.06q0,6.63-3.4,10.27T202.87,72Q196.46,72,193.07,68.33Zm14.3-9.72V28.43q0-5.46-4.5-5.46t-4.5,5.46V58.61c0,3.64,1.5,5.45,4.5,5.45S207.37,62.25,207.37,58.61Z"/><path class="cls-2" d="M19.58,77.32H28l3.87,42.52H32l4.1-42.52h9.49l4.11,42.52h.16l3.87-42.52h7.5l-5.61,55.32H44.79l-3.95-37.3h-.16l-4,37.3H25.19Z"/><path class="cls-2" d="M68.41,129.79Q65,126.16,65,119.52V90.44q0-6.64,3.39-10.27t9.8-3.64q6.41,0,9.8,3.64t3.4,10.27v29.08q0,6.65-3.4,10.27t-9.8,3.64Q71.82,133.43,68.41,129.79Zm14.31-9.72V89.89q0-5.46-4.51-5.46t-4.5,5.46v30.18q0,5.46,4.5,5.46T82.72,120.07Z"/><path class="cls-2" d="M97.26,77.32h12.88q6.72,0,9.8,3.12T123,90v3.4q0,8.61-5.69,10.91v.16a6.74,6.74,0,0,1,4.46,3.87,19.48,19.48,0,0,1,1.31,7.82v9.72a35.7,35.7,0,0,0,.16,3.83,9.51,9.51,0,0,0,.79,2.89H115.2a12.86,12.86,0,0,1-.64-2.53,40.06,40.06,0,0,1-.15-4.27V115.73q0-3.8-1.23-5.3c-.82-1-2.22-1.5-4.23-1.5h-3v23.71H97.26ZM109.11,101A5.23,5.23,0,0,0,113,99.69c.87-.9,1.31-2.4,1.31-4.51V90.91a7,7,0,0,0-1.07-4.34,4,4,0,0,0-3.36-1.34h-4V101Z"/><path class="cls-2" d="M129.1,77.32h8.7v47.42h14.3v7.9h-23Z"/><path class="cls-2" d="M156.29,77.32h13.27q6.48,0,9.72,3.48T182.52,91v28q0,6.72-3.24,10.19t-9.72,3.48H156.29Zm13.12,47.42a4.19,4.19,0,0,0,3.27-1.27,6,6,0,0,0,1.15-4.11V90.6a6,6,0,0,0-1.15-4.11,4.18,4.18,0,0,0-3.27-1.26H165v39.51Z"/></svg>